<?xml version="1.0" encoding="utf-8"?>
<!-- Generator: Adobe Illustrator 18.1.0, SVG Export Plug-In . SVG Version: 6.00 Build 0)  -->
<!DOCTYPE svg PUBLIC "-//W3C//DTD SVG 1.1//EN" "http://www.w3.org/Graphics/SVG/1.1/DTD/svg11.dtd">
<svg version="1.1" id="Arrow_1_" xmlns="http://www.w3.org/2000/svg" xmlns:xlink="http://www.w3.org/1999/xlink" x="0px" y="0px"
	 width="500px" height="500px" viewBox="0 0 500 500" enable-background="new 0 0 500 500" xml:space="preserve">
<g>
	<g>
		<g>
			<path fill="#36A9E1" d="M247.5,462.3L35.2,249.7C12.5,226.9,0,196.7,0,164.6s12.5-62.3,35.2-85.1l6.6-6.6
				c22.7-22.7,52.9-35.2,85.1-35.2c32.1,0,62.3,12.5,85,35.2l40.6,40.6l40.6-40.6c22.7-22.7,52.9-35.2,85-35.2
				c32.1,0,62.3,12.5,85.1,35.2l1.6,1.6c22.7,22.7,35.2,52.9,35.2,85c0,32.1-12.5,62.3-35.2,85.1L247.5,462.3z M126.9,58.2
				c-26.7,0-51.7,10.4-70.6,29.2L49.7,94c-18.9,18.9-29.2,43.9-29.2,70.6s10.4,51.7,29.2,70.6l197.8,198.1l202.8-203.1
				c18.9-18.9,29.2-43.9,29.2-70.6c0-26.7-10.4-51.7-29.2-70.6l-1.6-1.6c-18.9-18.9-43.9-29.2-70.6-29.2
				c-26.6,0-51.7,10.4-70.5,29.2l-55.1,55l-55.1-55C178.6,68.6,153.5,58.2,126.9,58.2z"/>
		</g>
	</g>
	<g>
		<g>
			<path fill="#36A9E1" d="M438.1,214.1l-7.9-6.5c10.9-13.2,16.8-29.9,16.8-47c0-40.8-33.2-74-74-74c-18,0-35.3,6.5-48.8,18.4
				l-6.8-7.7c15.4-13.5,35.1-20.9,55.6-20.9c46.5,0,84.3,37.8,84.3,84.3C457.3,180.1,450.4,199.1,438.1,214.1z"/>
		</g>
	</g>
</g>
</svg>
