<?xml version="1.0" encoding="utf-8"?>
<!-- Generator: Adobe Illustrator 18.0.0, SVG Export Plug-In . SVG Version: 6.00 Build 0)  -->
<!DOCTYPE svg PUBLIC "-//W3C//DTD SVG 1.1//EN" "http://www.w3.org/Graphics/SVG/1.1/DTD/svg11.dtd">
<svg version="1.1" id="Layer_1" xmlns="http://www.w3.org/2000/svg" xmlns:xlink="http://www.w3.org/1999/xlink" x="0px" y="0px"
	 width="500px" height="500px" viewBox="0 0 500 500" enable-background="new 0 0 500 500" xml:space="preserve">
<g>
	<path opacity="0.2" enable-background="new    " d="M499,166.7C499,97.8,443.2,42,374.3,42c-30.6,0-58.7,11.1-80.4,29.4
		c-27.1,22.9-44.4,57.1-44.4,95.4c0-38.3-17.3-72.5-44.4-95.4C183.4,53,155.4,42,124.8,42C55.9,42,0,97.8,0,166.7
		c0,30.6,10.2,59.4,29.4,80.4c52.8,57.8,220.1,222.5,220.1,222.5s167.4-164.7,220.2-222.5C488.8,226.1,499,197.3,499,166.7z"/>
	<path fill="#D75541" d="M499,155.2c0-68.9-55.9-124.8-124.8-124.8c-30.6,0-58.7,11.1-80.4,29.4c-27.1,22.9-44.4,57.1-44.4,95.4
		c0-38.3-17.3-72.5-44.4-95.4c-21.7-18.3-49.7-29.4-80.4-29.4C55.9,30.4,0,86.3,0,155.2c0,30.6,10.2,59.4,29.4,80.4
		C82.1,293.3,249.5,458,249.5,458s167.4-164.7,220.2-222.5C488.8,214.6,499,185.8,499,155.2z"/>
	<path opacity="0.1" fill="#FFFFFF" enable-background="new    " d="M125.7,38.5c30.6,0,58.6,11.1,80.4,29.4
		c27.1,22.9,44.4,57.1,44.4,95.4c0-38.3,17.3-72.5,44.4-95.4c21.7-18.3,49.7-29.4,80.4-29.4c67.2,0,122,53.1,124.6,119.7
		c0-1,0.1-2,0.1-3c0-68.9-55.9-124.8-124.8-124.8c-30.6,0-58.6,11.1-80.4,29.4c-27.1,22.9-44.4,57.1-44.4,95.4
		c0-38.3-17.3-72.5-44.4-95.4c-21.7-18.3-49.7-29.4-80.4-29.4C56.8,30.4,1,86.3,1,155.2c0,1,0.1,2,0.1,3
		C3.8,91.7,58.5,38.5,125.7,38.5z"/>
</g>
</svg>
