<?xml version="1.0" encoding="utf-8"?>
<!-- Generator: Adobe Illustrator 18.1.1, SVG Export Plug-In . SVG Version: 6.00 Build 0)  -->
<svg version="1.1" id="Layer_1" xmlns="http://www.w3.org/2000/svg" xmlns:xlink="http://www.w3.org/1999/xlink" x="0px" y="0px"
	 viewBox="0 0 960 560" enable-background="new 0 0 960 560" xml:space="preserve">
<g>
	<rect x="269" fill="none" stroke="#FFFFFF" stroke-miterlimit="10" width="420" height="560"/>
	<path fill="#C90016" stroke="#FFFFFF" stroke-miterlimit="10" d="M491.9,233.1c0,1.1,0,2.2,0,3.4c0,0.5,0.2,1,0.4,1.5
		c0.4-0.3,0.9-0.5,1.3-0.9c1.2-1.1,2.3-2.2,3.4-3.4c3.6-3.6,7.5-6.9,11.8-9.7c2.4-1.6,5-2.5,7.9-2.3s5.2,1.5,6.9,3.8
		c0.5,0.6,0.7,1.6,0.6,2.5c-0.1,1-0.5,2-0.9,2.9c-2.3,4.7-4.7,9.4-7,14.1c-0.1,0.1-0.2,0.3-0.2,0.4c0,0.2,0.1,0.4,0.1,0.7
		c0.2-0.1,0.4-0.1,0.6-0.2c1.3-1.1,2.6-2.3,3.9-3.5c5.8-5,11.6-9.9,17.5-14.8c1.5-1.3,3.2-2.4,4.8-3.6c2.8-2,5.7-1.8,8.3,0.3
		c1.6,1.3,2.9,2.7,3.8,4.5c0.6,1.2,0.7,2.2,0.2,3.4c-1.7,4-3.9,7.6-6.3,11.2c-4.8,7.3-9.7,14.6-14.5,21.9c-2,3-4.1,5.9-5.8,9
		s-3.1,6.4-4.5,9.7c-1.8,4.3-3.4,8.7-4.9,13.2c-1,3.2-1.7,6.4-2.5,9.7c-0.2,0.8-0.1,1.8-0.1,2.6c0,0.9,0,1.8,1.2,2
		c1.3,0.2,2.2-0.1,2.8-1.2c0.6-1.3,1.1-2.6,1.6-4c1.6-4.2,3.2-8.5,5.5-12.5c1.4-2.5,2.9-5.1,4.7-7.5c3.3-4.3,6.7-8.5,10.1-12.6
		c1.4-1.7,2.9-3.2,4.4-4.7c2.1-2.1,7.4-2.4,9.8-0.6c0.5,0.4,0.9,1.1,1,1.8c0.2,1.2-0.2,2.3-0.9,3.4c-3.4,5-6.7,10-10,15.1
		c-2.8,4.4-5.4,8.8-7.9,13.3c-1.1,1.9-1.8,4.1-2.6,6.1c-0.1,0.1-0.1,0.3-0.2,0.4c-0.3,1.2-0.8,2.7,0.4,3.6s2.7,0.5,3.9-0.2
		c1.7-1.1,3.3-2.3,4.6-3.8c4.7-5.4,8.9-11.2,12.8-17.2c4.8-7.4,9.7-14.7,14.7-22c1.5-2.2,3.3-4.3,5.2-6.2c1.8-1.9,4.1-3,6.6-3.6
		c2.8-0.7,4.8,0.6,5.3,4c0.2,1.7,0.1,3.4-0.5,5.2c-0.9,2.7-0.7,5.5,0.1,8.3c0.1,0.3,0.3,0.6,0.3,0.9c0.4,2.7,0.8,5.4,1.2,8
		c0.2,1.4,0.3,2.9,0.6,4.3c0.3,2,0.2,3.9-0.2,6c-1,6.5-4.3,11.9-8.5,16.8c-0.2,0.2-0.4,0.5-0.6,0.7c-0.4,0.6-0.2,1,0.3,1.4
		c0.8,0.5,1.7,0.6,2.5,0.1c1.3-0.9,2.6-1.9,3.6-3.1c3.1-3.9,6.2-7.9,9-12c3.4-5.1,6.7-10.5,9.8-15.8c1.7-2.8,2.9-5.9,4.4-8.8
		c2.4-4.4,5.2-8.5,9-11.9c2.9-2.6,6.2-3.2,9.8-2.6c1.6,0.2,2.4,1.3,2.6,3c0.3,2.5-0.8,4.7-1.6,6.9c-0.3,0.9-0.7,1.8-0.8,2.7
		c-0.3,3.8-0.2,7.5,0.7,11.2c0.6,2.4,1.1,4.8,1.5,7.3c0.2,1.6,0.2,3.2,0,4.8c-0.9,6.2-3,11.9-6.9,16.8c-1,1.3-1.2,2.2-0.6,2.7
		c0.6,0.6,1.7,0.6,2.8-0.4c1.5-1.4,2.9-2.9,4.3-4.5c1.8-2,3.5-4.2,5.2-6.2c0.3-0.4,0.7-0.7,1-1c1.4-1.4,3-1.9,4.8-1.1
		c1.8,0.9,2.3,2.6,2.2,4.5s-0.7,3.6-1.7,5.2c-2.4,3.6-5.5,6.6-9,9.2c-2.2,1.6-4.4,3-7,4.1c-3,1.2-6,1.7-9.1,1.6
		c-3.4-0.1-6.8-0.8-10-2.2c-3-1.3-5.8-3-8.5-4.8c-1-0.7-1.8-0.7-2.8-0.1c-5.4,2.9-11.1,5-17,6.1c-6.6,1.3-13.4,1.5-19.7-1.7
		c-2.5-1.3-4.8-2.9-6.6-5c-0.4-0.4-0.8-0.8-1.2-1.2c-0.5-0.5-1-0.5-1.5-0.2c-0.8,0.5-1.6,1.1-2.3,1.6c-3.9,3-8.2,5.3-12.9,6.6
		c-4.7,1.2-9.1,0.7-12.3-3.5c-1.2-1.5-1.4-1.5-3.2-0.6c-3.2,1.6-6.5,3-10,3.9c-2.6,0.6-5.1,0.9-7.7-0.4c-2.3-1.1-3.8-2.8-4.5-5.3
		c-1.2-4.2-0.9-8.3-0.2-12.5c0.4-2.8,1.1-5.6,1.9-8.4c1.4-5,3.4-9.8,5.7-14.4c2.6-5.2,5.4-10.3,8.8-15c0.2-0.3,0.5-0.7,0.6-1
		s0.1-0.7,0.1-1.1c-0.3,0.2-0.7,0.3-1,0.5c-0.9,0.9-1.7,1.8-2.6,2.8c-5,5.4-9.4,11.2-13.6,17.3c-4.7,6.9-8.7,14.1-12.2,21.6
		c-1.9,4.2-4,8.3-6.9,11.9c-0.7,0.9-1.6,1.7-2.6,2.4c-1.6,1-2.6,0.8-3.7-0.6c-1.4-1.7-2.3-3.6-2.9-5.7c-0.4-1.2-0.6-2.5-0.8-3.7
		c-0.1-0.6-0.1-1.3,0.1-1.9c0.8-3.8,2.1-7.3,3.7-10.8c3.7-7.5,7.3-15,11.1-22.5c3-5.9,6.2-11.7,9.3-17.5c0.1-0.2,0-0.5,0-0.8
		c-0.2,0.1-0.4,0.2-0.6,0.4c-1.3,1.4-2.6,2.8-3.9,4.2c-6.3,7.1-11.6,15-16.7,23c-3.8,6-7.1,12.2-10.6,18.4
		c-3.2,5.8-6.3,11.6-9.5,17.4c-1.1,2-2.6,2.3-4.3,0.9c-0.8-0.6-1.4-1.5-1.9-2.4c-1.3-2.3-2-4.8-2.2-7.5c0-0.7-0.1-1.4-0.4-2.1
		c-0.7-2.3-0.2-4.4,0.9-6.4c3.7-7.1,7.4-14.3,11-21.4c2.3-4.5,4.5-9.1,6.8-13.7c2.4-4.8,5-9.6,7.4-14.5c1.6-3.2,2.9-6.5,4.5-9.7
		c0.7-1.5,1.6-2.9,2.4-4.4c0.8-1.6,1.6-3.1,2.2-4.8c0.3-0.9,0.5-2,0.4-3.1c-0.1-2.4-2.2-3.5-4.2-2.3c-3.5,2.1-7,4.4-10.6,6.4
		c-4.1,2.2-8.2,4.3-12.4,6.2c-2.1,0.9-4.2,0.8-6.1-1.1c-1.3-1.3-2.5-2.7-3.4-4.3c-0.8-1.6-0.8-3.2,0.2-4.8c1.5-2.5,3.8-4.3,6.2-5.8
		c4.4-2.8,9-5.3,13.9-7.4c0.7-0.3,1.5-0.5,2.3-0.6c0.9-0.1,1,0.9,1.5,1.3c0.3,0.3,1,0.4,1.5,0.3c2.2-0.6,4.5-1.2,6.7-1.9
		c3.4-1.1,6.9-1.2,10.5-0.8c3.1,0.3,4.9,2.4,6.1,5.1C492.1,227.9,492,230.5,491.9,233.1z"/>
	<path fill="#0F4D92" stroke="#FFFFFF" stroke-miterlimit="10" d="M477.9,116.9c-45.4,0-90.7,0-136.1,0c-1.2,0-2.4,0-3.6-0.1
		c-0.3,0-0.7-0.3-1-0.5c0.2-0.3,0.4-0.6,0.7-0.8c1.9-1.1,3.9-2.2,5.9-3.2c7-3.6,13.9-7.3,20.9-10.9c7.4-3.9,14.7-7.8,22.1-11.8
		c6.1-3.3,12.1-6.6,18.2-9.8c5.4-2.9,10.9-5.6,16.3-8.5c6-3.2,11.8-6.5,17.8-9.6c4.9-2.6,9.9-5.1,14.8-7.7c5-2.6,10-5.3,14.9-7.9
		c3.6-1.9,7.1-3.8,10.7-5.7c1.1-0.6,2.1-0.7,3.4,0c5.5,3.1,11.1,6.1,16.7,9.2c4.4,2.4,8.7,4.9,13.1,7.4c7.8,4.3,15.6,8.6,23.3,12.9
		c6.5,3.6,12.9,7.2,19.3,10.8c4.4,2.4,8.8,4.8,13.1,7.2c6.4,3.5,12.7,7.1,19.1,10.7c6.6,3.7,13.2,7.3,19.8,10.9c3.6,2,7.1,4,10.6,6
		c0.3,0.2,0.4,0.6,0.6,0.8c-0.3,0.2-0.7,0.4-1,0.5c-0.5,0.1-1,0-1.4,0C570.1,116.9,524,116.9,477.9,116.9L477.9,116.9z"/>
	<path fill="#0F4D92" stroke="#FFFFFF" stroke-miterlimit="10" d="M477.8,489.7c-45.1,0-90.2,0-135.3,0c-3.5,0-3.5,0-3.5-3.6
		c0-7.8,0-15.7,0-23.5c0-0.4,0-0.8,0-1.2c0.1-1.8,0.4-2.2,2.3-2.2c0.7,0,1.4,0,2.2,0c90,0,179.9,0,269.9,0c0.3,0,0.6,0,1,0
		c2.2,0.1,2.5,0.3,2.5,2.5c0,8.6,0,17.1,0,25.7c0,2.1-0.2,2.3-2.3,2.4c-1.8,0-3.7,0-5.5,0C565.3,489.8,521.5,489.8,477.8,489.7
		L477.8,489.7z"/>
	<path fill="#0F4D92" stroke="#FFFFFF" stroke-miterlimit="10" d="M477.9,179c-38.6,0-77.1,0-115.7,0c-1.7,0-3.4,0-5-0.1
		c-1.9-0.1-2.3-0.4-2.3-2.3c0-7.7,0-15.4,0-23c0-2.1,0.6-2.7,2.7-2.7c2.9,0,5.8,0,8.6,0c76.9,0,153.7,0,230.6,0c4.2,0,4,0.6,4,4
		c0,6.9,0,13.8,0,20.6c0,0.5,0,1,0,1.4c-0.1,1.6-0.3,1.8-1.8,1.9c-2.2,0.1-4.3,0.2-6.5,0.2C554.3,179,516.1,179,477.9,179z"/>
	<path fill="#0F4D92" stroke="#FFFFFF" stroke-miterlimit="10" d="M477.8,143.7c-46.5,0-92.9,0-139.4,0c-2.7,0-2.8,0-2.8-2.8
		c0-5.3,0-10.6,0-15.8c0-0.6,0-1.1,0.1-1.7c0.1-0.7,0.5-1.2,1.3-1.2c1,0,2.1-0.1,3.1-0.1c51.7,0,103.5,0,155.2,0
		c40.7,0,81.4,0,122.1,0c0.5,0,1,0,1.4,0c0.8,0,1.2,0.5,1.2,1.2c0,0.5,0,1,0,1.4c0,5.4,0,10.7,0,16.1c0,0.3,0,0.6,0,1
		c-0.1,1.7-0.2,1.8-1.8,1.8c-0.3,0-0.6,0-1,0C570.9,143.7,524.4,143.7,477.8,143.7L477.8,143.7z"/>
	<path fill="#C90016" stroke="#FFFFFF" stroke-miterlimit="10" d="M372.2,310.3c0-0.6,0.1-1.8,0.2-3c0.5-4.4,0.8-8.9,1.7-13.3
		c0.9-4.4,2-8.8,3.3-13.2c1.3-4.4,2.7-8.7,4.3-12.9c2.8-7.5,6.1-14.8,10-21.9c2.4-4.4,5-8.7,8.1-12.7c2.6-3.4,5.5-6.6,9.1-9.1
		c2.4-1.7,5-2.7,8-2.6c3.5,0.1,6.8,2.8,7.3,6.4c0.4,3.6,0,7-0.8,10.4c-1.6,6.4-4.3,12.3-7.3,18.1c-3.1,5.9-6.5,11.7-9.9,17.4
		c-3.4,5.6-7,11-10.7,16.4c-2.3,3.4-4.8,6.8-7.2,10.1c-0.7,1-1.2,2-1.3,3.3c-0.2,2.3-0.5,4.5-0.1,6.9c0.6,3.3,3.2,4.4,6,3.6
		c1.1-0.3,2.1-1,3.2-1.6c1.3-0.8,2-1.9,2.2-3.5c0.5-3.5,1-7,1.8-10.4c0.8-3.1,1.8-6.1,3-9c1.3-3.1,2.8-6,4.8-8.8
		c3-4.2,6.5-7.7,10.8-10.7c2.7-1.8,5.4-3.3,8.4-4.4c2.3-0.9,4.8-0.9,7.1-0.3c3.6,0.8,6.7,5.1,7,8.9c0.2,2.8-0.6,5.4-1.7,7.9
		c-3.7,8.3-9.8,14.8-16.1,21.2c-2.4,2.4-4.9,4.6-7.4,6.8c-1.4,1.3-1.4,1.7-0.2,3.1c2.3,2.5,4.7,2.6,7.2,0.2c1.8-1.8,3.5-3.7,5.3-5.5
		c1.1-1.1,2.3-2.2,3.5-3.2c0.5-0.4,1.1-0.6,1.7-0.6c1.6-0.1,2.4,0.6,2.5,2.2c0.1,1.7,0,3.3-0.7,4.9c-2.2,5-5.3,9.2-9.9,12.3
		c-3.9,2.6-8.2,3.7-12.8,2.8c-3.2-0.6-6-2.3-7.8-5.1c-0.3-0.4-0.5-0.8-0.8-1.2c-1.1-2-1.3-2-3-0.4c-0.8,0.7-1.7,1.4-2.6,2.1
		c-4.2,3.2-8.8,5-14.1,5.2c-5.5,0.2-9-2.2-10.5-7.4c-0.4-1.5-1-2.8-1-4.4C372.7,313.9,372.4,312.4,372.2,310.3z"/>
	<path fill="#0F4D92" stroke="#FFFFFF" stroke-miterlimit="10" d="M462.7,423.2c0,7.8,0,15.5,0,23.3c0,0.5,0,1,0,1.4
		c-0.1,1.6-0.4,1.9-2,2c-3.2,0-6.4,0-9.6,0c-8.1,0-16.2,0-24.2,0c-0.5,0-1,0-1.4,0c-1.3-0.1-1.5-0.3-1.6-1.5c0-0.6,0-1.1,0-1.7
		c0-15.4,0-30.9,0-46.3c0-3,0-3,3-2.9c1.6,0,3.2,0.1,4.8,0c7-0.4,12.1-3.9,14.9-10.2c1.2-2.7,1.6-5.7,0.7-8.9
		c-1.2-5-4.2-8.3-8.4-10.7c-3.6-2.2-7.3-4.2-10.9-6.3c-0.6-0.4-1.2-0.7-1.8-1.1c-1.6-1-2.6-2.3-2.3-4.3c0.1-0.5,0-1.1,0-1.7
		c0-2.3,0.5-2.7,2.8-2.9c4.7-0.4,8.8,3,9.5,6.7c0.2,1.2,0.7,2.4,0.9,3.7c0.3,1.5,1.4,2.5,2.9,2.7c3.1,0.3,4.4-0.8,4.5-4
		c0.1-4.6,0.1-9.3,0-13.9c0-1.4-0.1-3-1.7-3.7c-1.8-0.7-3.6-0.8-5.1,0.7c-0.8,0.8-1.5,0.7-2.5,0.4c-3.2-1.1-6.4-1.7-9.9-1.4
		c-1,0.1-1.5-0.5-1.5-1.4c0-3.6,0-7.2,0-10.8c0-1.1,0.7-1.5,1.5-1.9c5.3-2.8,9.1-7.1,12.1-12.2c0.4-0.6,0.5-1.3,1-1.9
		c0.5-0.7,1.2-0.5,1.4,0.3c0.2,0.6,0.2,1.3,0.3,1.9c0.4,3.3,1.2,6.6,3.1,9.5c2.1,3.3,4.9,4.8,8.9,3.9c1.4-0.3,2.3-1.1,2.9-2.2
		c2-3.8,4-7.6,6-11.4c0.1-0.3,0.3-0.6,0.6-0.7c0.5-0.3,1-0.3,1.1,0.3c0.1,0.5,0.1,1,0.1,1.4c0,7.7,0,15.4,0,23c0,2.6-0.4,2.9-2.9,3
		c-2.5,0-5,0-7.4,0c-0.9,0-1.8,0.1-2.6,0.2c-2.1,0.2-2.9,1.6-2.8,3.7c0.1,1.9,1.2,3.1,3.1,3.3c0.5,0.1,1,0,1.4,0.1
		c1.4,0.1,1.8,0.5,2.1,1.8c0.1,0.7,0.1,1.4,0.1,2.2c0,10.2,0,20.5,0,30.7c0,0.6,0,1.1,0,1.7c-0.2,2.2-0.8,2.6-3,2.8
		c-0.9,0.1-1.9,0.2-2.7,0.7c-1,0.6-1.4,3.1-0.8,4.4c0.6,1.2,1.6,1.7,2.9,1.7c3.1,0,6.2,0,9.4,0c3.3,0,3.3,0,3.3,3.4
		C462.7,407.7,462.7,415.4,462.7,423.2z"/>
	<path fill="#0F4D92" stroke="#FFFFFF" stroke-miterlimit="10" d="M600.5,241c0,14.7,0,29.4,0,44.1c0,2-0.3,3.8-1.4,5.4
		c-0.8,1.2-1.5,2.4-2.3,3.6c-0.1,0.2-0.5,0.4-0.8,0.4c-0.2-0.1-0.5-0.4-0.5-0.7c-0.3-2.9-0.4-5.9-0.8-8.8c-0.4-3-1.1-5.9-1.6-8.9
		c-0.5-2.6-0.6-5.2,0.2-7.8c0.9-3.1,0.7-6.3-0.7-9.1c-1.2-2.5-3.5-3.9-6.4-3.9c-2.3,0.1-4.6,0.5-6.7,1.7c-2.8,1.6-5.2,3.6-7.1,6.2
		c-2.8,4-5.7,8-8.5,12c-0.4,0.5-0.7,1.1-1.1,1.6c-0.5,0.5-0.9,0.3-1.1-0.3c-0.2-0.7-0.2-1.4-0.2-2.1c0-1.8,0.2-3.7,0.2-5.5
		c0-0.8,0.5-1.2,1.2-1.6c2.3-1.4,4.2-3.2,5.2-5.7c1.5-3.8,1.3-8.4-2.1-11.1c-0.9-0.7-2-1.3-3.1-1.7c-1.1-0.3-1.4-0.9-1.4-1.9
		c0-0.5,0-1,0-1.4c0-16.3,0-32.6,0-48.9c0-0.2,0-0.3,0-0.5c0-2.7,0-2.8,2.9-2.8c11,0,22.1,0,33.1,0c0.4,0,0.8,0,1.2,0
		c1.1-0.1,1.6,0.5,1.7,1.6c0,0.6,0,1.3,0,1.9C600.5,211.5,600.5,226.2,600.5,241L600.5,241z"/>
	<path fill="#0F4D92" stroke="#FFFFFF" stroke-miterlimit="10" d="M493.1,411.9c0-11.5,0-23,0-34.6c0-0.6-0.1-1.1,0-1.7
		c0.1-0.3,0.3-0.8,0.6-0.9c0.3-0.1,0.7,0.1,1.1,0.3c0.2,0.1,0.3,0.4,0.4,0.6c3.7,4.5,7.3,9,11,13.5c1.9,2.3,3.9,4.6,5.8,6.9
		c1,1.3,2.4,1.5,3.9,1.3c1.7-0.2,2.8-1.4,2.9-3.2c0-0.6,0-1.1,0-1.7c0-12.7,0-25.4,0-38.2c0-3.8,0-3.8,3.9-3.9c1.1,0,2.2,0,3.4,0
		c1.8,0.1,2.1,0.2,2.3,2.1c0.2,2.1,0.3,4.3,0.3,6.5c0.1,8,0.1,16,0.1,24c0,1.6-0.1,3.2-0.4,4.8c-0.3,1.5-0.8,1.8-2.3,1.9
		c-0.4,0-0.8,0-1.2,0c-1.2-0.1-2.3,0.4-2.7,1.5c-0.5,1.4-0.6,2.8,0.3,4.1c0.6,0.9,1.5,1.2,2.5,1.2c1.7,0,3.4,0,5,0
		c1.9,0,2,0.2,2.1,2.1c0,0.3,0,0.6,0,1c0,15.8,0,31.5,0,47.3c0,3,0,3-3,3c-10.9,0-21.8,0-32.6,0c-0.6,0-1.1,0-1.7,0
		c-0.9-0.1-1.5-0.6-1.5-1.5c0-0.6,0-1.3,0-1.9C493.1,434.9,493.1,423.4,493.1,411.9L493.1,411.9z"/>
	<path fill="#0F4D92" stroke="#FFFFFF" stroke-miterlimit="10" d="M443.2,193.4c5.4,0,10.9,0,16.3,0c0.6,0,1.1,0,1.7,0
		c0.8,0.1,1.3,0.5,1.4,1.4c0,0.5,0,1,0.1,1.4c0,6.3,0,12.6,0,19c0,1.9-0.7,3-2.5,3.8c-4.9,2.2-9.7,4.7-14.2,7.7
		c-2.1,1.4-4.1,3-5.7,5c-2.7,3.4-3.4,7.4-0.4,11.9c1.2,1.8,2.8,3.3,4.4,4.7s3.5,1.9,5.8,1.5c3.5-0.5,6.4-2.3,9.6-3.6
		c0.4-0.1,0.7-0.4,1-0.6c1.4-0.5,2-0.1,2,1.4c0.1,2.2,0,4.3,0,6.5c0,1.7-0.1,3.4,0,5c0.3,3-0.9,5.4-2.1,7.9
		c-1.9,3.7-3.7,7.5-5.6,11.3c-2.2,4.3-4.4,8.5-6.5,12.7c-1.8,3.5-3.6,7.1-5.4,10.6c-0.6,1.1-1.2,2.2-1.9,3.3c-0.6,0.9-0.7,0.9-1.3,0
		c-0.4-0.6-0.8-1.2-1.2-1.8c-1-1.4-2.3-2.1-4.1-2.2c-0.6,0-1.1,0-1.7-0.1c-0.2,0-0.5-0.5-0.4-0.7c0.1-0.4,0.4-0.9,0.7-1.2
		c3.7-4.1,6.8-8.6,9.2-13.5c1.8-3.7,2.9-7.6,2.3-11.8c-0.5-3.4-2.2-6.3-4.8-8.6c-4.1-3.5-8.8-3.5-13.8-2.3c-0.4,0.1-0.8,0.3-1.1,0.3
		c-0.6,0.1-1.1-0.2-1.2-0.9c0-0.2-0.1-0.5-0.1-0.7c0-3.8-0.1-7.7,0.1-11.5c0.1-1.4,0.8-2.9,1.3-4.3c1.4-3.7,2.6-7.5,2.9-11.5
		c0.2-2,0.1-4-0.1-6c-0.2-2.4-1.2-4.4-2.8-6.1c-1-1-1.4-2.1-1.4-3.6c0.1-7.3,0-14.6,0-21.8c0-0.2,0-0.3,0-0.5c0.1-2,0.2-2.2,2.2-2.2
		c5.2,0,10.4,0,15.6,0C442.1,193.4,442.7,193.4,443.2,193.4L443.2,193.4z"/>
	<path fill="#0F4D92" stroke="#FFFFFF" stroke-miterlimit="10" d="M355.5,417.7c0-9.7,0-19.4,0-29c0-1.6,0.3-3.2,0.7-4.7
		c0.6-2.2,0.5-4.4,0-6.6c-0.4-1.7-0.7-3.5-0.7-5.2c-0.1-6.2,0-12.5,0-18.7c0-0.5,0-1,0-1.4c0.1-1.4,0.3-1.6,1.8-1.6
		c3.4,0,3.8-0.1,3.8,3.4c0,6.1-0.1,12.1,0.1,18.2c0.1,3.8,0.2,7.7,0.9,11.4c1,5.5,4.3,9.5,9.3,12c2.6,1.3,5.5,2,8.5,2
		c1.3,0,2.6-0.1,3.8,0c3,0.2,5.9-0.5,8.7-1.3c1.1-0.3,1.4-0.2,1.6,0.9c0.1,0.6,0,1.1,0,1.7c0,16.1,0,32.1,0,48.2
		c0,3.1-0.1,3.2-3.3,3.2c-8.7,0-17.4,0-26.1,0c-2.2,0-4.5,0-6.7,0s-2.5-0.3-2.5-2.4C355.5,437.7,355.5,427.7,355.5,417.7
		L355.5,417.7z"/>
	<path fill="#0F4D92" stroke="#FFFFFF" stroke-miterlimit="10" d="M600.5,421.9c0,7.8,0,15.7,0,23.5c0,0.6,0,1.3,0,1.9
		c-0.1,2.3-0.2,2.5-2.5,2.5c-11.3,0-22.6,0-33.8,0c-0.4,0-0.8,0-1.2,0c-0.9,0-1.3-0.5-1.3-1.4c0-0.6,0-1.3,0-1.9c0-15.7,0-31.4,0-47
		c0-1.5,0-2.8,1.6-3.7c0.5-0.3,0.9-1.1,1.1-1.8c0.9-2.6,1.8-5.3,2.6-7.9c0.1-0.3,0.1-0.7,0.3-0.9c0.3-0.3,0.7-0.5,1.1-0.8
		c0.2,0.4,0.5,0.8,0.5,1.2c0,2.5,0,5,0,7.4c0,0.7,0,1.4,0.1,2.2c0.1,1,0.7,1.8,1.5,2c1.8,0.3,3.7,0.8,5.1-0.9c0.8-1,1.8-0.9,2.8-0.5
		c3.2,1.3,6.6,1.7,10,1.7c3.7,0,7.1-0.9,10.1-3c0.1-0.1,0.3-0.2,0.4-0.2c1-0.5,1.4-0.4,1.6,0.7c0.1,0.7,0.1,1.4,0.1,2.2
		C600.5,405.4,600.5,413.7,600.5,421.9L600.5,421.9z"/>
	<path fill="#0F4D92" stroke="#FFFFFF" stroke-miterlimit="10" d="M374.2,364.9c0-3.4,0-6.7,0-10.1c0-0.6,0.1-1.1,0.2-1.7
		c0.4-2.5,0.5-2.7,3-2.7c2.1,0,3.8-1.3,3.6-4c-0.2-2.1-0.8-2.8-2.7-3.1c-0.8-0.1-1.6-0.2-2.4-0.2c-5.1,0-10.2,0-15.3,0
		c-1.1,0-2.2,0.1-3.3,0.2c-1.3,0.1-1.5-0.1-1.7-1.4c-0.1-0.6,0-1.3,0-1.9c0-5.6,0-11.2-0.1-16.8c0-1.5,0.5-2.6,1.5-3.6
		c2.4-2.1,4.5-4.5,6.3-7.1c1.2-1.7,2.3-3.4,3.5-5.1c0.2-0.3,0.5-0.7,0.8-0.8c0.5-0.2,1-0.1,1.1,0.5c0.1,0.3,0,0.6,0,1
		c0.1,2.7,0.2,5.4,0.4,8.1c0.3,3.7,1.6,7.1,3.9,10.1c2.8,3.5,6.7,4.7,11.1,4.4c2.5-0.2,5.1,0,7.5-1.1c0.4-0.2,0.8-0.2,1.2-0.2
		c0.9-0.1,1.3,0.3,1.4,1.2c0,1.2,0,2.4,0,3.6c0,2.2,0,4.5,0,6.7c0,1.6-0.2,1.8-1.7,2.1c-0.5,0.1-1.1,0.1-1.7,0.3
		c-1.8,0.4-2.8,1.8-2.7,3.6c0.1,1.5,1.6,3.2,3.2,3.4c2.9,0.4,2.9,0.4,2.9,3.3c0,8.7-0.1,17.4,0.1,26.1c0.1,4.2-2.1,6.3-5.6,7.7
		c-2.7,1.1-5.5,1.2-8.5,0.4c-2.6-0.6-5-3.3-5.3-6.3c-0.2-2.8-0.6-5.6-0.7-8.4C374,370.5,374.1,367.7,374.2,364.9
		C374.1,364.9,374.2,364.9,374.2,364.9z"/>
	<path fill="#0F4D92" stroke="#FFFFFF" stroke-miterlimit="10" d="M512.7,193.4c5.4,0,10.7,0,16.1,0c0.6,0,1.3,0,1.9,0
		c0.8,0,1.2,0.4,1.2,1.2c0,0.5,0,1,0,1.4c0,9.7-0.1,19.3,0.1,29c0,2.4-1.2,3.6-2.9,4.7c-0.8,0.5-1.1,0.2-1.1-0.7s0.2-1.9,0.1-2.8
		c-0.2-2.1-1.6-3.6-3.1-4.9c-3.1-2.6-6.7-4.2-10.8-3.5c-2.9,0.5-5.7,1.6-8.1,3.4c-2.7,2-5.3,4.2-8,6.3c-0.4,0.3-0.9,0.7-1.4,1
		c-0.2,0.1-0.7-0.1-1-0.3c-0.2-0.2-0.2-0.6-0.3-0.9c-0.7-2.1-1.2-4.3-2.2-6.3c-0.3-0.6-0.2-1.4-0.2-2.1c0-7.5,0-15,0-22.5
		c0-0.3,0-0.6,0-1c0.1-1.4,0.5-1.8,1.9-1.9c0.5,0,1,0,1.4,0C501.9,193.4,507.3,193.4,512.7,193.4z"/>
	<path fill="#0F4D92" stroke="#FFFFFF" stroke-miterlimit="10" d="M394.1,214.3c0,5.8-0.1,11.5,0,17.3c0,1.9-0.3,3.6-1.4,5.2
		c-0.8,1.2-1.5,2.4-2.3,3.6c-0.2,0.3-0.7,0.6-1,0.5c-0.2,0-0.4-0.6-0.5-0.9c-0.1-0.3-0.1-0.6,0-1c0.3-2.9-1-5.1-2.9-7
		c-0.8-0.8-1.3-1.5-0.6-2.7c0.6-0.9,0.3-1.9-0.1-3c-1.2-3-3.7-4.8-6.2-6.5c-4-2.7-8.4-3.7-13.2-3.5c-2.5,0.1-5.1,0-7.6,1
		c-0.4,0.1-0.8,0.2-1.2,0.2c-1.4,0.1-1.7-0.1-1.7-1.5c0-4.9,0-9.8,0-14.6c0-1.9,0-3.8,0-5.8s0.2-2.2,2.3-2.2c6.3,0,12.6,0,18.9,0
		c4.9,0,9.8,0,14.6,0c2.7,0,2.8,0.1,2.8,2.9C394.1,202.3,394.1,208.3,394.1,214.3z"/>
	<path fill="#0F4D92" stroke="#FFFFFF" stroke-miterlimit="10" d="M561.6,369.2c0-2.5,0-5,0-7.4c0-1.1,0.1-1.9,1.4-2.4
		c1.2-0.4,1.8-1.6,1.7-2.9c-0.2-3.6-0.5-7.2-0.7-10.8c-0.1-0.9-0.5-1.7-1.4-2.1c-0.8-0.4-1.1-1.2-1.1-2c0-3.4-0.1-6.9,0-10.3
		c0-1.5,0.5-2,1.9-1.5c4.6,1.5,9.3,1.1,14,0.8c2.9-0.2,5.7-0.8,8.4-1.8c2.2-0.8,4.4-1.4,6.6-2.2c1.5-0.5,2.9-1.3,4.3-1.9
		c0.5-0.2,1.1-0.4,1.6-0.4c0.9-0.1,1.6,0.3,1.8,1.2c0.1,0.6,0.2,1.3,0.2,1.9c0,4.1,0,8.2,0,12.2c0,2-0.1,2.1-2.1,2.6
		c-0.7,0.2-1.6,0.2-2,0.6c-1.4,1.6-2.9,1.1-4.5,0.6c-3.1-1.1-6.3-1.3-9.6-1c-2.9,0.3-5.5,1.2-7.8,3c-2.7,2.1-4.7,4.6-5.7,8
		c-0.6,1.9-1,3.7-0.7,5.6c0.7,4.1,2.4,7.7,5.8,10.4c3,2.4,6.3,4.3,9.6,6.1c2.3,1.3,4.6,2.6,6.7,4.1c1.3,0.9,2.6,2,2.8,3.9
		c0.3,2.8-1.5,4.5-3.5,4.9c-4.8,0.9-9.5-0.1-12.1-5.4c-0.8-1.5-1.1-3.3-1.4-5c-0.3-1.3-0.8-2.3-2.1-2.6c-1.5-0.3-3.1-0.5-4.3,0.7
		c-0.5,0.4-0.6,1.2-0.8,1.9c-0.4,1.3-0.5,1.4-1.7,1c-1-0.3-2-0.6-3-0.5c-2,0.1-2.6,0.1-2.5-2.6C561.6,373.8,561.6,371.5,561.6,369.2
		L561.6,369.2z"/>
	<path fill="#0F4D92" stroke="#FFFFFF" stroke-miterlimit="10" d="M493,335.4c0-4.6,0-9.3,0-13.9c0-0.8,0-1.6,0.1-2.4
		c0-0.2,0.2-0.4,0.4-0.5c0.1,0.1,0.3,0.2,0.3,0.3c0.4,0.8,0.8,1.5,1,2.4c1.1,4.5,3.8,7.3,8.2,8.7c4.2,1.3,8,0.3,11.9-1
		c1.7-0.6,3.3-1.2,4.9-1.9c1.1-0.5,1.9-0.4,2.9,0.3c1.6,1.2,3.2,2.4,5.2,2.9c0.9,0.2,1.7,0.4,2.6,0.5c1,0.1,1.5,0.5,1.5,1.5
		c0,3.2,0,6.4,0,9.6c0,0.9-0.5,1.3-1.4,1.4s-1.8,0.1-2.6,0.1c-6.5,0-12.9,0-19.4,0c-1.2,0-2.4,0.2-3.6,0.4c-1.2,0.2-1.7,1-2,2.1
		c-0.6,3,0.7,4.5,3.7,4.7c2.3,0.2,2.8,0.7,2.9,3.1c0.1,4.7,0,9.4,0,14.1c0,1,0.1,2.1,0,3.1c0,0.8-1,1.1-1.6,0.6
		c-0.2-0.2-0.3-0.5-0.5-0.8c-4.3-5.3-8.6-10.6-12.9-15.9c-1.1-1.4-1.6-2.8-1.6-4.6C493.1,345.3,493.1,340.3,493,335.4L493,335.4z"/>
	<path fill="#C90016" stroke="#FFFFFF" stroke-miterlimit="10" d="M483.8,373.9c0,4.6-0.1,9.3,0,13.9c0,2.8,1.3,4.1,4.1,4.6
		c0.6,0.1,1.1,0.4,1.7,0.6c-0.4,0.9-1.2,0.6-1.9,0.6c-3.9,0-7.8,0-11.8,0c-0.5,0-1.1-0.1-1.6-0.2c-0.1,0-0.2-0.2-0.2-0.4
		c0-0.1,0.1-0.3,0.2-0.4c0.3-0.1,0.6-0.1,0.9-0.2c1-0.3,2-0.6,2.9-1c1.1-0.5,1.7-1.4,1.7-2.6c0-1.3,0.1-2.6,0.1-3.8
		c0-9.9,0-19.8,0-29.7c0-1.2,0.3-2.6-0.7-3.6c-1.4-1.3-2.7-2.7-4.7-3.2c-1-0.2-2-0.5-3-0.8c-0.2-0.1-0.4-0.4-0.5-0.7
		c0-0.1,0.3-0.4,0.4-0.5c0.5-0.2,1.1-0.3,1.6-0.3c2.9,0,5.8,0,8.6,0c1.7,0,2.8,0.6,3.8,2c2.2,3,4.7,5.8,7,8.7c3.7,4.5,7.3,9,11,13.6
		c2.3,2.8,4.6,5.7,6.9,8.5c0.3,0.3,0.5,0.6,0.8,0.9c0.6,0.5,1.1,0.3,1.2-0.4c0.1-0.4,0-0.8,0-1.2c0-7.7,0-15.3,0-23
		c0-1.4-0.3-2.9-0.4-4.3c-0.1-1.9-1.4-2.9-3.6-3.2c-0.5-0.1-1,0-1.4-0.1c-0.3-0.1-0.6-0.4-0.8-0.7c0.3-0.2,0.6-0.6,0.9-0.7
		c0.4-0.1,0.9-0.1,1.4-0.1c3.7,0,7.4,0,11,0c0.6,0,1.1,0,1.7,0.1c0.3,0.1,0.6,0.5,0.8,0.7c-0.3,0.2-0.6,0.5-0.9,0.6
		c-0.5,0.1-1.1,0-1.7,0.1c-2,0.4-3.3,1.6-3.5,3.7c-0.1,1-0.1,2.1-0.1,3.1c0,12.2,0,24.5,0,36.7c0,0.7,0,1.4-0.1,2.2
		c-0.2,1.1-1,1.4-1.9,0.7c-0.5-0.5-1-1-1.4-1.6c-3.5-4.2-6.9-8.5-10.4-12.8c-4.7-5.7-9.4-11.5-14-17.2c-1-1.2-1.9-2.5-2.9-3.7
		c-0.2-0.3-0.6-0.5-0.9-0.7c-0.2,0.3-0.4,0.7-0.5,1c-0.1,0.6-0.1,1.3-0.1,1.9C483.8,365.3,483.8,369.6,483.8,373.9L483.8,373.9z"/>
	<path fill="#C90016" stroke="#FFFFFF" stroke-miterlimit="10" d="M543,393.7c-5.3,0-10.6,0-15.8,0c-0.7,0-1.9-0.3-1.9-0.4
		c0.1-1.1,1.1-0.5,1.6-0.7c1-0.4,2-0.7,2.8-1.2c0.5-0.4,1-1.1,1.1-1.7c0.3-1.1,0.5-2.4,0.5-3.5c0-10,0.1-20,0-30
		c0-1.7-0.3-3.5-0.4-5.2c-0.2-2.2-1.7-2.9-3.3-3.1c-0.7-0.1-1.4-0.1-2.1-0.2c-0.2,0-0.4-0.3-0.4-0.5s0.2-0.5,0.3-0.6
		c0.6-0.2,1.2-0.3,1.9-0.3c10.4,0,20.8,0,31.2,0c0.5,0,1,0,1.4,0.1c1,0.1,1.6,0.7,1.6,1.7c0.1,2.4,0.2,4.8,0.3,7.2
		c0,0.3,0,0.6-0.2,0.9c-0.2,0.5-1,0.7-1.4,0.2c-0.3-0.4-0.4-0.9-0.6-1.3c-0.4-0.9-0.7-1.8-1.1-2.7c-0.8-1.6-2.1-2.7-3.9-2.8
		c-4.8-0.2-9.6-0.3-14.4-0.4c-1.3,0-1.6,0.4-1.8,1.7c0,0.3-0.1,0.6-0.1,1c0,4.3,0,8.6,0,13c0,2.2,0.3,2.5,2.5,2.5
		c3.4,0,6.9-0.2,10.3-0.3c2.7-0.1,3.6-2,4.2-4.1c0.1-0.2,0-0.5,0.1-0.7c0.1-0.5,0.1-1.3,0.9-1.1c0.4,0.1,0.8,0.7,1,1.2
		c0.2,0.4,0.1,0.9,0.1,1.4c0,3.8,0,7.5,0,11.3c0,0.3,0.1,0.7,0,0.9c-0.3,0.5-0.7,1-1.1,1.4c-0.3-0.4-0.7-0.8-0.9-1.2
		c-0.3-0.6-0.4-1.2-0.6-1.8c-0.9-2.7-2-3.5-4.7-3.6c-3.3-0.1-6.6-0.1-9.8-0.1c-1.6,0-2,0.3-2,1.7c0,5.3,0,10.5,0.2,15.8
		c0.1,2.3,0.6,2.6,2.9,2.6c3.7,0,7.4,0,11,0c3.3,0,5.8-1.5,7.7-4c0.8-1.1,1.5-2.3,2.3-3.4c0.3-0.4,0.5-0.8,0.8-1.1
		c0.2-0.2,0.7-0.4,0.8-0.3c0.3,0.2,0.6,0.7,0.5,0.9c-0.4,1.6-0.8,3.2-1.3,4.8c-0.4,1.4-1,2.7-1.5,4c-0.8,2.2-0.8,2.2-3.3,2.2
		c-4.2,0-8.5,0-12.7,0C545.1,393.7,544,393.7,543,393.7L543,393.7z"/>
	<path fill="#C90016" stroke="#FFFFFF" stroke-miterlimit="10" d="M571.6,386.3c0-2.1,0-4.2,0-6.2c0-0.5,0.3-1.3,0.6-1.3
		c0.8-0.2,1,0.6,1.2,1.2c0.6,1.7,1,3.4,1.7,5c1.8,4.1,5.1,6.2,9.4,6.7c2.5,0.3,5.1,0.4,7.5-0.9c3.6-1.9,5.2-6.5,2.9-10
		c-1.2-1.8-2.7-3.1-4.5-4.2c-3.8-2.3-7.7-4.5-11.5-6.8c-1.7-1-3.3-2.3-4.7-3.7c-2.3-2.4-3.7-5.3-3.5-8.6c0.2-3.1,1.4-5.8,3.6-8.1
		c3.4-3.5,7.6-4.5,12.2-4c2.6,0.2,5,0.9,7.3,2c1.5,0.7,2.5,0.4,3.5-1c0.4-0.5,0.6-1,1.3-0.8c0.8,0.2,1,0.7,1,1.4c0,4.3,0,8.6,0,12.9
		c0,0.4-0.1,0.8-0.3,1.1c-0.3,0.6-1.3,0.5-1.6-0.1c-0.2-0.3-0.2-0.8-0.4-1.1c-0.4-1.2-0.6-2.5-1.1-3.7c-1.6-4.3-6.4-7.8-10.6-7.6
		c-2.5,0.1-4.7,0.2-6.6,2.1c-3.3,3.2-3.1,7.4,0.6,10c3.1,2.2,6.5,4.1,9.7,6.1c3,1.9,6.4,3.3,9,5.8c2.5,2.4,4.1,5.3,4.2,8.8
		c0.1,3.8-1.5,6.9-4.2,9.5c-2.9,2.8-6.4,3.9-10.4,3.9c-3.2,0-6.3-0.3-9.3-1.6c-1.1-0.5-2.3-0.4-3.5-0.6c-0.9-0.1-1.5,0.4-2,1.1
		c-0.2,0.3-0.7,0.6-1.1,0.8c-0.2-0.5-0.6-0.9-0.6-1.4C571.6,390.8,571.6,388.5,571.6,386.3L571.6,386.3z"/>
	<path fill="#C90016" stroke="#FFFFFF" stroke-miterlimit="10" d="M611.1,386.3c0-1.9,0-3.8,0-5.8c0-0.5,0-1,0.2-1.4
		c0.1-0.3,0.6-0.5,1-0.5c0.2,0,0.6,0.3,0.7,0.5c0.4,1,0.7,2.1,1,3.2c1.3,5.4,5.2,8.4,10.1,9.2c2.6,0.4,5.2,0.4,7.7-0.8
		c2.7-1.3,4.5-4.6,4-7.5c-0.3-1.9-1.4-3.4-2.8-4.6c-1.1-0.9-2.2-1.8-3.5-2.6c-3.4-2.1-6.9-4-10.3-6c-2.3-1.3-4.2-3-6-5
		c-3.1-3.6-3-11.3,0.3-14.9c3.7-4.2,8.2-5.4,13.5-4.9c2.2,0.2,4.3,1,6.4,1.9c1.7,0.8,2.6,0.5,3.9-0.9c0.2-0.2,0.3-0.4,0.5-0.5
		c0.6-0.4,1.1-0.3,1.3,0.4c0.2,0.5,0.2,1.1,0.2,1.7c0,3.7,0,7.4,0,11c0,0.9,0.2,1.9-0.9,2.5c-0.4-0.7-1-1.4-1.3-2.2
		c-0.4-1.1-0.6-2.3-1.1-3.4c-1.6-4.1-4.9-6.2-9-7.1c-1.4-0.3-2.9-0.1-4.3,0c-2.4,0.2-5.2,2.8-5.7,5.1c-0.6,2.7,0.2,5,2.5,6.8
		c3.2,2.4,6.6,4.4,10.1,6.3c2.5,1.4,5,2.9,7.3,4.5c5.5,3.9,6.4,9.2,4.7,14.6c-1.2,3.7-4.1,6.4-7.9,7.8c-4.9,1.7-9.7,1.2-14.5-0.3
		c-1.2-0.4-2.5-0.6-3.7-0.8c-1.1-0.2-2,0.1-2.6,1.3c-0.1,0.3-0.8,0.6-1.1,0.5s-0.7-0.7-0.7-1.1c-0.1-1.7,0-3.4-0.1-5
		C611.1,387.6,611.1,386.9,611.1,386.3z"/>
	<path fill="#C90016" stroke="#FFFFFF" stroke-miterlimit="10" d="M413.6,386.5c0-2.2,0-4.3,0-6.5c0-0.5-0.1-1.3,0.7-1.3
		c0.4,0,0.9,0.6,1.1,1.1c0.3,0.7,0.5,1.5,0.6,2.3c1.4,6.1,6.4,9.5,11.6,9.6c1.2,0,2.4,0.1,3.6-0.1c3.1-0.3,5.4-2.1,6.3-4.8
		c1-2.8,0.4-5.7-2-7.9c-1-0.9-2.1-1.7-3.2-2.4c-3.7-2.3-7.5-4.4-11.3-6.7c-2-1.2-3.9-2.7-5.4-4.6c-4.4-5.3-3.1-12.6,1.7-16.7
		c3.2-2.8,6.9-3.5,10.9-3.3c2.6,0.1,5.2,0.8,7.6,2c1.6,0.8,2.5,0.6,3.8-0.9c0.4-0.4,0.7-1.1,1.3-0.7c0.4,0.2,0.7,0.9,0.7,1.3
		c0.1,2.7,0.1,5.4,0.1,8.2c0,1.3,0,2.6,0,3.8c0,0.6,0,1.1-0.2,1.7c-0.1,0.3-0.5,0.7-0.8,0.7s-0.7-0.4-0.8-0.7
		c-0.4-1.2-0.8-2.4-1.1-3.6c-1.9-6.2-7.6-9.6-14.3-8.2c-2.7,0.5-4.6,2.4-5.2,5.1c-0.7,2.7,0.2,5.1,2.5,6.7c3.2,2.1,6.4,4.1,9.7,6.1
		c2.6,1.6,5.3,3.1,7.9,4.8c3.3,2.2,4.8,5.5,5.4,9.2c0.4,2.2-0.3,4.3-1.3,6.2c-2.6,4.9-6.7,7.5-12.3,7.8c-3.6,0.2-7.2-0.2-10.6-1.6
		c-0.9-0.4-1.9-0.3-2.8-0.5c-1.1-0.2-1.8,0.2-2.5,1.1c-0.3,0.3-0.7,0.5-1.1,0.8c-0.2-0.5-0.5-1-0.6-1.4c-0.1-1.6,0-3.2-0.1-4.8
		C413.6,387.6,413.6,387,413.6,386.5L413.6,386.5z"/>
	<path fill="#C90016" stroke="#FFFFFF" stroke-miterlimit="10" d="M397.8,365.3c0-4.2,0-8.3,0-12.5c0-0.8,0-1.6-0.3-2.4
		c-0.7-1.9-2.1-2.9-4.2-2.9c-0.6,0-1.5,0.2-1.5-0.6c0-0.8,0.9-0.8,1.5-0.8c4.3,0,8.6,0,12.9,0c0.3,0,0.7,0,0.9,0.2
		c0.2,0.1,0.4,0.4,0.5,0.7c0,0.1-0.3,0.4-0.5,0.4c-0.5,0.1-1.1,0.1-1.7,0.2c-2.4,0.4-3.5,1.6-3.7,4s-0.3,4.8-0.3,7.2
		c-0.1,5.1,0,10.2,0,15.3c0,2.5-0.2,5-0.4,7.4c-0.6,5.5-4.9,10.5-10.2,12.1c-5.4,1.6-10.9,1.5-16.3-0.1c-4.1-1.3-7.1-4.1-8.7-8.2
		c-0.7-1.8-0.9-3.5-1-5.4c-0.2-8.5-0.4-16.9-0.7-25.4c0-1.1-0.1-2.2-0.1-3.4c-0.2-2.1-1.4-3.3-3.5-3.6c-0.6-0.1-1.1,0-1.7-0.1
		c-0.3,0-0.5-0.3-0.7-0.5c0.2-0.3,0.4-0.6,0.7-0.8c0.3-0.1,0.6-0.1,0.9-0.1c5.4,0,10.9,0.1,16.3,0.2c0.6,0,1.6,0.4,1.6,0.5
		c0,1.1-1,0.7-1.6,0.8c-2.8,0.4-3.7,1.2-4.2,4c-0.2,1.2-0.3,2.4-0.3,3.6c0,6.4-0.1,12.8,0,19.2c0,2.8,0.2,5.6,0.6,8.4
		c0.7,4.3,4.2,7.6,7.9,8.2c3.7,0.6,7.3,0.4,10.7-1.2c3.2-1.6,5.4-3.9,6.3-7.6c0.5-2.3,0.7-4.5,0.8-6.9
		C397.9,371.9,397.9,368.6,397.8,365.3L397.8,365.3z"/>
	<path fill="#C90016" stroke="#FFFFFF" stroke-miterlimit="10" d="M460,393.7c-2.6,0-5.3,0-7.9,0c-0.4,0-0.8,0-1.2-0.1
		c-0.2,0-0.4-0.2-0.5-0.4c0.2-0.2,0.4-0.6,0.6-0.6c1.2-0.1,2.3-0.4,3.4-1s1.7-1.4,1.8-2.6c0.1-1.7,0.4-3.5,0.4-5.3
		c0-9.8,0-19.7,0-29.5c0-1-0.1-1.9-0.2-2.9c-0.4-2.5-1.3-3.4-3.9-3.7c-0.7-0.1-2,0.3-2-0.6c0-1.1,1.3-0.9,2.1-0.9c5,0,9.9,0,14.9,0
		c0.2,0,0.5,0,0.7,0c0.7,0.1,1.6,0,1.6,1c0,0.2-1,0.5-1.6,0.5c-2.9,0.4-3.9,1.4-4.2,4.3c-0.1,1.1-0.1,2.2-0.1,3.4
		c0,9.8,0,19.7,0,29.5c0,1.4,0.2,2.9,0.2,4.3c0,1.2,0.7,2,1.7,2.4c1.2,0.5,2.4,0.8,3.6,1.2c0.2,0.1,0.3,0.3,0.3,0.5
		c0,0.1-0.2,0.3-0.3,0.3c-0.5,0.1-1.1,0.2-1.7,0.2C465.1,393.7,462.5,393.7,460,393.7z"/>
	<path fill="#C90016" stroke="#FFFFFF" stroke-miterlimit="10" d="M476.3,507.7c-0.1,2.4-0.3,4.7-1.5,6.9c-2.2,3.9-6.4,5.8-10.7,4.6
		c-1.2-0.3-2.4-0.8-3.6-1.3c-1-0.4-1.3-1.2-0.8-2.2c0.3-0.7,0.7-1.2,1-1.9c0.4-0.9,1-1.1,1.9-0.7c1,0.4,2,0.6,3,0.8
		c1.3,0.2,2.6-0.2,3.3-1.4c0.2-0.4,0.4-0.9,0.5-1.3c-0.4,0.1-0.8,0.1-1.3,0.3c-3.2,0.9-6.9,0.2-8.7-3.1c-1.6-2.9-1-7.2,1.3-9.5
		c2.7-2.6,6-3.2,9.3-2.1c3.5,1.2,5.8,3.9,6.1,7.8C476.3,505.7,476.3,506.7,476.3,507.7z"/>
	<path fill="#C90016" stroke="#FFFFFF" stroke-miterlimit="10" d="M503.2,496.3c2.4,0,4.8,0,7.2,0c1.5,0,1.8,0.3,1.9,1.9
		c0.1,1.4-0.2,2.5-1.2,3.7c-3.3,3.6-5.5,7.8-6.2,12.6c-0.1,0.9-0.5,1.7-0.7,2.5c-0.5,2.1-0.5,2.3-2.6,2.3c-4.2,0.1-4.3,0-3.6-4.1
		c0.6-3.9,2.3-7.4,4.5-10.7c0.5-0.7,1.7-1.5,1.1-2.4c-0.3-0.5-1.6-0.4-2.4-0.4c-1.9-0.1-3.8,0-5.7-0.1c-1.3,0-1.5-0.3-1.6-1.6
		c0-0.2,0-0.5,0-0.7c-0.1-2.9,0-3,3-3.1c1.1,0,2.2,0,3.4,0C501.2,496.3,502.2,496.3,503.2,496.3L503.2,496.3z"/>
	<path fill="#C90016" stroke="#FFFFFF" stroke-miterlimit="10" d="M489,505.9c0,2.2,0,4.5,0,6.7c0,1.1,0.2,1.8,1.5,2
		s1.6,1.1,1.4,2.9c-0.1,1.2-0.6,1.8-2,1.8c-3.1,0.1-6.2,0-9.3,0c-1,0-1.6-0.6-1.6-1.6c0-0.5,0-1,0-1.4c0-1,0.4-1.7,1.6-1.7
		s1.5-0.7,1.5-1.7c0-2.6,0-5.1,0-7.7c0-1.3-0.1-1.3-1.4-1c-1.4,0.4-2,0.2-2.5-1c-0.6-1.3-0.4-2,0.7-2.8c1-0.8,2.2-1.4,3-2.4
		c1.7-2,3.9-1.4,6-1.3c1.1,0,1.3,1.1,1.3,2C489,501.1,488.9,503.5,489,505.9L489,505.9z"/>
	<path fill="#C90016" stroke="#FFFFFF" stroke-miterlimit="10" d="M454.6,506c0,2.1,0,4.2,0,6.2c0,1.1,0.1,2.2,1.6,2.5
		c1.1,0.2,1.6,1.4,1.4,2.7c-0.1,1.1-0.8,1.9-2.1,1.9c-3.2,0.1-6.4,0.1-9.6,0c-0.9,0-1.5-0.6-1.6-1.5c0-0.8,0-1.6,0.2-2.4
		c0.2-1,1.2-0.8,2-1c0.7-0.1,1-0.5,1-1.1c0-2.7,0-5.4,0-8.2c0-1-0.6-1.2-1.5-0.9c-0.7,0.3-1.5,0.4-1.9-0.3c-0.4-0.8-0.7-1.8-0.9-2.7
		c0-0.2,0.5-0.6,0.8-0.8c1.2-1,2.5-2,3.8-2.9c1.8-1.4,3.8-1.1,5.7-0.6c1.1,0.3,1.2,1.5,1.2,2.6c0,2.2,0,4.3,0,6.5
		C454.8,506,454.7,506,454.6,506z"/>
	<path fill="#0F4D92" stroke="#FFFFFF" stroke-miterlimit="10" d="M585,351.3c4.4,0.1,7.6,2.3,9,6.3c0.4,1.2,0.7,2.4,0.9,3.7
		c0.3,1.9,1.4,2.9,3.3,3.2c0.8,0.1,1.8-0.2,2,0.9c0.2,1.2,0.2,2.5,0,3.7c-0.1,0.5-0.7,0.3-1.2,0c-1.7-1.1-3.4-2.2-5.2-3.3
		c-3-1.8-6.1-3.4-9-5.3c-1.5-1-2.9-2.2-4.1-3.5c-1.1-1.2-1-2-0.1-3.4C581.6,351.8,583.3,351.2,585,351.3z"/>
	<path fill="#C90016" stroke="#FFFFFF" stroke-miterlimit="10" d="M560.5,252.2c2.6,0,4.5,2.5,4.7,4.7c0.3,4.3-4.1,9.2-9.6,7.7
		c-1.7-0.5-2.6-1.8-2.9-3.4c-0.6-2.9,1.2-6.1,4-7.7C557.8,252.8,559.2,252.6,560.5,252.2z"/>
	<path fill="#0F4D92" stroke="#FFFFFF" stroke-miterlimit="10" d="M423.8,381.4c0-1.6-0.1-3.2,0-4.8c0-1.1,0.7-1.5,1.6-0.9
		c2.6,1.6,5.2,3.3,7.8,5c0.9,0.6,1.6,1.5,1.8,2.7c0.4,2.6-0.8,4.7-3.4,5.2c-1.9,0.3-4,0.2-5.9,0c-1.4-0.2-1.8-0.9-1.9-2.3
		C423.7,384.6,423.7,383,423.8,381.4C423.7,381.4,423.8,381.4,423.8,381.4z"/>
	<path fill="#0F4D92" stroke="#FFFFFF" stroke-miterlimit="10" d="M394.1,304.9c0,1,0,2.1,0,3.1c0,0.5-0.1,1-0.4,1.4
		c-0.5,0.8-2,1.5-2.4,1.1c-0.5-0.5-0.9-1.3-1-2c-0.2-2.9,0.4-5.7,2.5-7.9c0.2-0.2,0.5-0.4,0.6-0.3c0.3,0.1,0.6,0.4,0.6,0.6
		C394.1,302.2,394,303.5,394.1,304.9L394.1,304.9z"/>
	<path fill="#0F4D92" stroke="#FFFFFF" stroke-miterlimit="10" d="M495.2,305.2c-0.4,1.4-0.8,2.9-1.3,4.3c-0.1,0.2-0.3,0.3-0.5,0.5
		c-0.1-0.2-0.4-0.3-0.4-0.5c-0.2-2.1-0.3-4.3,1-6.2c0.1-0.2,0.5-0.3,0.8-0.4c0.1,0.2,0.3,0.4,0.3,0.6c0,0.6-0.1,1.1-0.1,1.7
		C495,305.1,495.1,305.2,495.2,305.2z"/>
	<path fill="#0F4D92" stroke="#FFFFFF" stroke-miterlimit="10" d="M532,280c-0.1,0.2-0.2,1-0.6,1.5c-0.6,0.8-1.4,1.4-2.1,2.1
		c-1.1-1.2,0.4-1.8,0.6-2.7c0.2-0.8,0.6-1.5,1-2.1c0.2-0.3,0.5-0.5,0.7-0.8c0.1,0.3,0.3,0.7,0.4,1C532,279.2,532,279.4,532,280z"/>
	<path fill="#FFFFFF" stroke="#FFFFFF" stroke-miterlimit="10" d="M577.9,292.2c-0.2,2.9-1.1,5-2,7c-1.2,2.8-3.2,5.1-5.3,7.3
		c-0.6,0.6-1.2,0.8-2.1,0.3c-1.1-0.6-2.4-0.9-3.5-1.4c-0.8-0.3-0.9-0.8-0.3-1.5c4.1-4.1,7.2-9.1,10.6-13.8c0.2-0.3,0.5-0.6,0.7-1
		c0.4-0.5,0.8-0.6,1,0C577.4,290.4,577.7,291.6,577.9,292.2z"/>
	<path fill="#FFFFFF" stroke="#FFFFFF" stroke-miterlimit="10" d="M620,294.4c-0.4,5.2-2.7,9.5-6,13.3c-0.4,0.4-0.7,0.5-1.2,0.3
		c-1.2-0.5-2.5-0.9-3.8-1.4c-0.9-0.3-1.1-0.8-0.6-1.6c0-0.1,0.1-0.1,0.1-0.2c3.2-4,5.7-8.4,8.1-12.9c0.2-0.4,0.4-0.9,0.7-1.2
		c0.4-0.5,0.9-1,1.3-1.5c0.3,0.6,0.9,1.2,1,1.9C619.8,292,619.8,293.2,620,294.4z"/>
	<path fill="#FFFFFF" stroke="#FFFFFF" stroke-miterlimit="10" d="M428.6,280.1c-0.3,0.6-0.7,1.7-1.2,2.8c-1.5,2.8-3.6,5.2-5.7,7.5
		c-2.7,2.8-5.6,5.4-8.3,8.1c-0.2,0.2-0.5,0.5-0.7,0.6c-0.1,0.1-0.4-0.1-0.5-0.3c-0.1-0.2,0-0.5,0.1-0.7c3.1-5.9,5.6-12.1,9.8-17.4
		c1-1.2,2.1-2.4,3.4-3.3C427.1,276.4,428.7,277.4,428.6,280.1z"/>
	<path fill="#FFFFFF" stroke="#FFFFFF" stroke-miterlimit="10" d="M407.1,249.4c-0.6,1.8-1.1,3.5-1.8,5.1
		c-2.4,5.3-5.3,10.3-8.3,15.3c-1.7,2.7-3.4,5.4-5.1,8c-0.1,0.2-0.4,0.3-0.6,0.5c0-0.3-0.2-0.6-0.1-0.9c0.8-2.2,1.6-4.3,2.5-6.5
		c2.1-5.2,4.2-10.5,6.5-15.6c1.1-2.4,2.1-5,4.3-6.8c0.4-0.4,1.2-0.7,1.6-0.6C406.4,248.1,406.7,248.9,407.1,249.4z"/>
	<path fill="#C90016" stroke="#FFFFFF" stroke-miterlimit="10" d="M326.3,393.7c-4.1,0-8.2,0-12.2,0c-0.6,0-1.3,0-1.9-0.1
		c-0.2,0-0.5-0.3-0.7-0.5c0.2-0.2,0.5-0.4,0.7-0.5c0.9-0.3,1.8-0.5,2.7-0.8c1.9-0.7,2.6-2.2,2.8-4.1c0.1-0.8,0-1.6,0-2.4
		c0-10.3,0-20.6,0-31c0-0.9,0-1.8-0.1-2.6c-0.3-2.4-1.6-3.7-4-4c-0.7-0.1-1.4-0.4-2.2-0.6c0.5-1.2,1.5-0.9,2.4-0.9
		c3.2,0,6.4,0,9.6,0c5,0.1,10.1,0,15.1,0.4c5,0.5,9.3,2.7,11.8,7.4c2.7,5.3,0.4,11.5-3.7,13.8c-0.7,0.4-1.3,0.9-1.9,1.3
		c0.7,0.4,1.4,1,2.1,1.3c6.4,2.9,8.7,10.2,5.4,15.5c-2.3,3.6-5.1,5.8-9.2,6.8c-2.9,0.7-5.7,0.8-8.5,0.8
		C331.8,393.7,329.1,393.7,326.3,393.7L326.3,393.7z M324.9,387.4c0,2.9,0.2,3.1,3.2,3.2c2.3,0.1,4.6,0,7,0.1c1.7,0,3.3-0.5,4.8-1.2
		c5.7-2.8,7-10.2,2.7-14.8c-2.5-2.7-5.7-3.4-9-3.9c-2.2-0.4-4.5-0.1-6.7-0.1c-1.6,0-1.9,0.4-2,2c-0.1,2.6,0,5.1,0,7.7
		C324.9,382.7,324.9,385,324.9,387.4z M324.9,358.4c0,2.5,0,5,0,7.4c0,1.5,0.2,1.7,1.7,1.8c3.1,0.1,6.2,0.1,9.3-0.1
		c2-0.1,3.9-0.9,5.3-2.4c3.8-4.2,3.5-9.7-0.9-13.3c-4-3.2-8.7-3.3-13.4-2.5c-1.9,0.3-1.9,0.5-2,2.4
		C324.9,353.9,324.9,356.1,324.9,358.4L324.9,358.4z"/>
	<path fill="#FFFFFF" stroke="#FFFFFF" stroke-miterlimit="10" d="M466.9,506.7c-1.4,0-2.2-0.9-2.2-2.5c0-1.2,1-2.4,2.2-2.4
		c1.1-0.1,2.8,1.6,2.8,2.8C469.6,505.6,468.2,506.7,466.9,506.7z"/>
	<path fill="#0F4D92" stroke="#FFFFFF" stroke-miterlimit="10" d="M355.5,263.2c0-2.9,0-5.8,0-8.6c0-1.1,0.3-2,1.1-2.8
		c1.5-1.5,2.9-2.9,4.4-4.4c0.2-0.2,0.4-0.3,0.6-0.4c0.7-0.4,1.4,0,1.2,0.8c-0.4,2-0.8,4-1.3,6c-0.1,0.5-0.3,0.9-0.4,1.4
		c-0.6,2.7-1.2,5.4-1.8,8.1c-0.7,2.9-1.5,5.8-2.3,8.8c-0.1,0.4-0.2,0.8-0.4,1.1c-0.1,0.2-0.4,0.3-0.6,0.3s-0.4-0.2-0.5-0.4
		c-0.1-0.3-0.1-0.6-0.1-0.9C355.4,269.1,355.4,266.1,355.5,263.2C355.4,263.2,355.4,263.2,355.5,263.2z"/>
	<path fill="none" stroke="#FFFFFF" stroke-width="2" stroke-linecap="round" stroke-linejoin="round" stroke-miterlimit="10" d="
		M506.2,347"/>
	<path fill="none" stroke="#FFFFFF" stroke-width="2" stroke-linecap="round" stroke-linejoin="round" stroke-miterlimit="10" d="
		M564.2,382.3"/>
	<path fill="none" stroke="#FFFFFF" stroke-width="2" stroke-linecap="round" stroke-linejoin="round" stroke-miterlimit="10" d="
		M311.3,393.1"/>
	
		<path fill="#0F4D92" stroke="#FFFFFF" stroke-width="2" stroke-linecap="round" stroke-linejoin="round" stroke-miterlimit="10" d="
		M440.4,303.6c0,0.6,0,1.3,0,1.9"/>
	<path fill="none" stroke="#FFFFFF" stroke-width="2" stroke-linecap="round" stroke-linejoin="round" stroke-miterlimit="10" d="
		M599.8,368.9"/>
	<path fill="none" stroke="#FFFFFF" stroke-width="2" stroke-linecap="round" stroke-linejoin="round" stroke-miterlimit="10" d="
		M562.3,275.8c0,0.3,0,0.6,0,1"/>
	<path fill="none" stroke="#FFFFFF" stroke-width="2" stroke-linecap="round" stroke-linejoin="round" stroke-miterlimit="10" d="
		M393.4,299.8c-0.1,0.7-0.2,1.4-0.2,2.2"/>
	<path fill="none" stroke="#FFFFFF" stroke-width="2" stroke-linecap="round" stroke-linejoin="round" stroke-miterlimit="10" d="
		M469.7,347"/>
	<path fill="none" stroke="#FFFFFF" stroke-width="2" stroke-linecap="round" stroke-linejoin="round" stroke-miterlimit="10" d="
		M357.8,347"/>
	<path fill="none" stroke="#FFFFFF" stroke-width="2" stroke-linecap="round" stroke-linejoin="round" stroke-miterlimit="10" d="
		M524.9,347"/>
	<path fill="none" stroke="#FFFFFF" stroke-width="2" stroke-linecap="round" stroke-linejoin="round" stroke-miterlimit="10" d="
		M450,393.1"/>
	<path fill="none" stroke="#FFFFFF" stroke-width="2" stroke-linecap="round" stroke-linejoin="round" stroke-miterlimit="10" d="
		M524.9,393.1"/>
	<path fill="none" stroke="#FFFFFF" stroke-width="2" stroke-linecap="round" stroke-linejoin="round" stroke-miterlimit="10" d="
		M469.7,393.1"/>
	<path fill="none" stroke="#FFFFFF" stroke-width="2" stroke-linecap="round" stroke-linejoin="round" stroke-miterlimit="10" d="
		M522.5,347"/>
	<path fill="none" stroke="#FFFFFF" stroke-width="2" stroke-linecap="round" stroke-linejoin="round" stroke-miterlimit="10" d="
		M474,393.1"/>
	<path fill="none" stroke="#FFFFFF" stroke-width="2" stroke-linecap="round" stroke-linejoin="round" stroke-miterlimit="10" d="
		M489.8,393.1"/>
	<path fill="none" stroke="#FFFFFF" stroke-width="2" stroke-linecap="round" stroke-linejoin="round" stroke-miterlimit="10" d="
		M531.4,277.7c0,1.8-0.3,3.5-1.7,4.8c-0.3,0.3-0.3,0.9-0.5,1.4"/>
	<path fill="none" stroke="#FFFFFF" stroke-width="2" stroke-linecap="round" stroke-linejoin="round" stroke-miterlimit="10" d="
		M356.4,270c0,1,0.1,2-0.5,2.9"/>
	<path fill="none" stroke="#FFFFFF" stroke-width="2" stroke-linecap="round" stroke-linejoin="round" stroke-miterlimit="10" d="
		M425.8,340.6c-0.2,0.5-0.5,1-0.7,1.4"/>
	<path fill="none" stroke="#FFFFFF" stroke-width="2" stroke-linecap="round" stroke-linejoin="round" stroke-miterlimit="10" d="
		M357.1,342c-0.2,0.3-0.5,0.6-0.7,1"/>
	<path fill="#C90016" stroke="#FFFFFF" stroke-miterlimit="10" d="M331.1,326.8c-4.1,0.2-7.7-0.4-11.2-2.2c-3.9-2.1-6.6-5.2-8-9.4
		c-2-6.2-2.6-12.5-1.3-18.9c0.8-4.1,1.4-8.2,2.2-12.2c0.5-2.5,1.3-4.9,2.1-7.3c1.1-3.4,2.3-6.8,3.6-10.1c1.4-3.6,2.8-7.1,4.5-10.5
		c2.1-4.1,4.2-8.2,6.7-12.1c5.5-8.7,12.6-15.8,22-20.3c4.4-2.1,9-3.7,14-3.8c5.5-0.1,10.3,1.6,14.3,5.5c1.8,1.8,1.9,2.4,0.3,4.5
		c-0.1,0.2-0.3,0.4-0.5,0.6c-0.7,0.7-0.6,1.2,0.1,1.8c0.7,0.5,1.4,1.1,2.1,1.5c2,1.3,2.9,3.1,2.8,5.5c-0.1,2.8,0.1,5.6-0.8,8.3
		c-0.6,1.8-0.7,3.8-1.1,5.6c-0.7,2.9-1.4,5.7-2.2,8.5c-1.3,4.1-2.6,8.2-4,12.3c-1.5,4.2-3.3,8.3-4.6,12.5c-1.1,3.7-2.6,7.2-4.2,10.6
		c-2.9,6.1-6.4,11.7-10.9,16.7c-3.8,4.2-8,7.7-13.2,10C339.9,325.8,335.5,327.2,331.1,326.8z M328,309.6c0.5,1.6,1.3,3.4,3.3,3.8
		c2.1,0.4,4.1,0.3,6.1-0.5c3.5-1.4,6-4.2,8.2-7.1c4.5-5.7,7.5-12.3,10.2-19.1c1.7-4.5,3.2-9,4.6-13.6c0.9-2.9,1.6-5.8,2.4-8.7
		c0.6-2.1,1.2-4.3,1.7-6.4s0.8-4.2,1.2-6.3c0.2-0.9,0.4-1.9,0.5-2.8c0.5-2.9,1-5.8,1.4-8.7c0.1-0.7,0-1.6-0.4-2
		c-0.7-0.7-1.6,0.1-2.1,0.5c-1.8,1.3-3.5,2.8-5.1,4.3c-2.8,2.6-5.6,5.2-8.3,7.9c-1.7,1.6-3.7,2.2-5.9,2.1c-1.7-0.1-2.9,0.6-4,1.7
		c-2.3,2.3-3.7,5.2-4.9,8.1c-1.6,4.2-3.2,8.5-4.6,12.8c-1.1,3.3-1.8,6.8-2.7,10.2c-0.4,1.6-0.6,3.3-1.1,4.9
		c-1.3,3.9-0.7,8.1-1.8,11.9C327.3,305.1,327.4,307.4,328,309.6z"/>
</g>
</svg>
